<svg width="24" height="24" viewBox="0 0 24 24" fill="none" xmlns="http://www.w3.org/2000/svg">
<g clip-path="url(#clip0_38_116)">
<path d="M3.04762 19.3077C3.04762 19.4607 3.10782 19.6074 3.21499 19.7156C3.32215 19.8238 3.4675 19.8846 3.61905 19.8846H4.90476C5.0322 19.8846 5.15598 19.8416 5.25643 19.7624C5.35688 19.6833 5.42823 19.5725 5.45914 19.4476L6.3509 15.8462H3.04762V19.3077ZM6.85714 15.3213C8.74029 15.6108 12.886 17.1036 15.619 19.6362V4.3638C12.886 6.89639 8.74029 8.38918 6.85714 8.67865V15.3213ZM17.7143 2C17.3103 2.00046 16.923 2.16269 16.6373 2.45111C16.3516 2.73953 16.1909 3.13058 16.1905 3.53846V20.4615C16.1905 20.8696 16.351 21.2609 16.6368 21.5494C16.9226 21.8379 17.3101 22 17.7143 22C18.1184 22 18.506 21.8379 18.7918 21.5494C19.0776 21.2609 19.2381 20.8696 19.2381 20.4615V3.53846C19.2376 3.13058 19.077 2.73953 18.7913 2.45111C18.5056 2.16269 18.1183 2.00046 17.7143 2ZM3.04762 8.73077H6.28571V15.2692H3.04762V8.73077ZM0 10.4615V13.5385C0.000504163 13.9973 0.181278 14.4373 0.502659 14.7617C0.824041 15.0862 1.25978 15.2687 1.71429 15.2692H2.47619V8.73077H1.71429C1.25978 8.73128 0.824041 8.91379 0.502659 9.23826C0.181278 9.56273 0.000504163 10.0027 0 10.4615ZM23.4286 11.4231H21.5238C21.3723 11.4231 21.2269 11.4839 21.1197 11.5921C21.0126 11.7002 20.9524 11.847 20.9524 12C20.9524 12.153 21.0126 12.2998 21.1197 12.4079C21.2269 12.5161 21.3723 12.5769 21.5238 12.5769H23.4286C23.5801 12.5769 23.7255 12.5161 23.8326 12.4079C23.9398 12.2998 24 12.153 24 12C24 11.847 23.9398 11.7002 23.8326 11.5921C23.7255 11.4839 23.5801 11.4231 23.4286 11.4231ZM20.5836 8.41038C20.6692 8.41038 20.7537 8.39085 20.8308 8.35327L22.5476 7.51995C22.6842 7.45365 22.7891 7.33528 22.8393 7.19088C22.8894 7.04649 22.8807 6.8879 22.815 6.75C22.7493 6.6121 22.6321 6.50619 22.4891 6.45556C22.346 6.40494 22.189 6.41374 22.0524 6.48005L20.3358 7.31341C20.219 7.37005 20.1247 7.46507 20.0684 7.58289C20.0122 7.70071 19.9972 7.83434 20.0261 7.96187C20.0549 8.08939 20.1258 8.20324 20.2271 8.28473C20.3285 8.36623 20.4543 8.41053 20.5838 8.41038H20.5836ZM22.5476 16.48L20.831 15.6467C20.6946 15.5816 20.5382 15.5737 20.396 15.6246C20.2538 15.6755 20.1373 15.7811 20.0719 15.9183C20.0065 16.0556 19.9975 16.2135 20.047 16.3574C20.0964 16.5013 20.2002 16.6196 20.3358 16.6866L22.0524 17.52C22.189 17.5863 22.346 17.5951 22.4891 17.5444C22.6321 17.4938 22.7493 17.3879 22.815 17.25C22.8807 17.1121 22.8894 16.9535 22.8393 16.8091C22.7891 16.6647 22.6842 16.5464 22.5476 16.48Z" fill="#FFD249"/>
</g>
<defs>
<clipPath id="clip0_38_116">
<rect width="24" height="24" fill="white"/>
</clipPath>
</defs>
</svg>
