<svg width="21" height="21" viewBox="0 0 21 21" fill="none" xmlns="http://www.w3.org/2000/svg">
<path d="M13.2153 8.35123C13.0886 4.75199 7.90306 4.75348 7.77706 8.35123C7.89406 11.946 13.0994 11.9445 13.2153 8.35123ZM2.56418 9.40123C2.85963 9.63213 3.20596 9.78909 3.57435 9.85904C3.94273 9.92899 4.32249 9.90991 4.68201 9.80339C5.04152 9.69687 5.37039 9.50598 5.6412 9.24664C5.91201 8.9873 6.11694 8.667 6.23891 8.31243C6.36088 7.95786 6.39637 7.57927 6.34242 7.20821C6.28846 6.83714 6.14663 6.48434 5.92873 6.17919C5.71083 5.87404 5.42317 5.62537 5.08971 5.45389C4.75625 5.28241 4.38665 5.19309 4.01168 5.19336C3.52503 5.2003 3.05238 5.35723 2.65822 5.64274C2.26406 5.92824 1.96759 6.32841 1.80927 6.78864C1.65095 7.24887 1.6385 7.74674 1.7736 8.21431C1.90871 8.68188 2.18479 9.09638 2.56418 9.40123Z" fill="#FFD249"/>
<path d="M5.05869 13.8645C5.06581 12.7583 5.82519 11.8084 6.57369 11.0891C6.7766 10.9028 6.99349 10.7323 7.22244 10.5791C6.92717 10.2505 6.58162 9.97074 6.19869 9.75038C5.61747 10.3292 4.83062 10.6541 4.01037 10.6541C3.19012 10.6541 2.40328 10.3292 1.82206 9.75038C0.776936 10.3796 -0.540439 11.7716 0.232061 13.0654C0.376373 13.3097 0.582106 13.5119 0.828808 13.652C1.07551 13.7922 1.35459 13.8653 1.63831 13.8641L5.05869 13.8645ZM14.6257 7.54875C14.7288 10.6601 19.2344 10.659 19.3364 7.54875C19.2243 4.43213 14.7374 4.4325 14.6257 7.54875ZM13.3132 11.1791C13.1626 11.0773 13.0061 10.9846 12.8444 10.9016C12.7355 11.0025 12.6202 11.0965 12.4994 11.1829C11.8509 11.6394 11.0659 11.8603 10.2745 11.8092C9.4831 11.758 8.733 11.4378 8.14869 10.9016C7.05819 11.499 5.91369 12.5509 5.80869 13.8641C5.80619 14.3639 6.00233 14.8443 6.35395 15.1995C6.70557 15.5547 7.18388 15.7557 7.68369 15.7583H13.3094C13.6331 15.7543 13.9503 15.6673 14.2307 15.5056C14.5111 15.344 14.7453 15.113 14.9109 14.8349C15.0765 14.5568 15.1679 14.2409 15.1764 13.9173C15.1849 13.5937 15.1102 13.2734 14.9594 12.987C14.5699 12.2566 14.004 11.6352 13.3132 11.1791Z" fill="#FFD249"/>
<path d="M20.7989 11.4379C20.4212 10.736 19.8583 10.1511 19.1714 9.74667C18.5905 10.3271 17.8031 10.6535 16.982 10.6542C16.1608 10.6549 15.3729 10.3299 14.791 9.75042C14.4096 9.97298 14.0643 10.2524 13.7673 10.5792C13.9963 10.7323 14.2132 10.9028 14.416 11.0892C14.9465 11.5651 15.3795 12.1395 15.691 12.7804C15.8495 13.1199 15.9327 13.4896 15.9348 13.8642H19.3548C19.6381 13.8607 19.9158 13.7845 20.1612 13.6429C20.4067 13.5013 20.6117 13.2991 20.7566 13.0557C20.9015 12.8122 20.9815 12.5356 20.9889 12.2523C20.9963 11.9691 20.9309 11.6886 20.7989 11.4379ZM19.5513 15.0353C19.5081 15.0115 19.4608 14.9964 19.4118 14.9909C19.3629 14.9854 19.3133 14.9896 19.266 15.0032C19.2187 15.0169 19.1745 15.0397 19.136 15.0704C19.0975 15.1012 19.0654 15.1392 19.0416 15.1823C15.4154 21.8697 5.58288 21.8678 1.95813 15.1823C1.93431 15.1392 1.90225 15.1012 1.86375 15.0705C1.82525 15.0397 1.78108 15.0169 1.73376 15.0033C1.68643 14.9896 1.63689 14.9854 1.58794 14.9909C1.539 14.9964 1.49161 15.0115 1.4485 15.0353C1.40539 15.0591 1.36738 15.0912 1.33666 15.1297C1.30594 15.1682 1.2831 15.2123 1.26945 15.2597C1.24189 15.3552 1.25341 15.4578 1.3015 15.5449C5.20563 22.7457 15.7953 22.7442 19.6983 15.5449C19.7221 15.5018 19.7372 15.4544 19.7427 15.4055C19.7482 15.3565 19.744 15.307 19.7303 15.2597C19.7167 15.2123 19.6938 15.1682 19.6631 15.1297C19.6324 15.0912 19.5944 15.0591 19.5513 15.0353ZM3.10375 4.1303C6.82938 -0.379453 14.1708 -0.379078 17.896 4.1303C17.9606 4.20588 18.0527 4.25269 18.1518 4.26043C18.251 4.26817 18.3492 4.23619 18.4248 4.17155C18.5003 4.1069 18.5471 4.01488 18.5549 3.91572C18.5626 3.81656 18.5306 3.71838 18.466 3.6428C14.4535 -1.21458 6.54588 -1.2142 2.53338 3.64355C2.46878 3.71918 2.43687 3.81738 2.44468 3.91654C2.45249 4.0157 2.49936 4.1077 2.575 4.1723C2.65064 4.23689 2.74884 4.2688 2.848 4.26099C2.94716 4.25319 3.03915 4.20593 3.10375 4.1303Z" fill="#FFD249"/>
<path d="M15.1803 4.52025C15.2585 4.51874 15.3342 4.49302 15.3971 4.44666C15.46 4.4003 15.5069 4.33557 15.5315 4.2614C15.5561 4.18722 15.557 4.10726 15.5342 4.03252C15.5114 3.95779 15.466 3.89197 15.4042 3.84413C13.9837 2.79645 12.265 2.2312 10.5 2.2312C8.7349 2.2312 7.01622 2.79645 5.59572 3.84413C5.51586 3.9034 5.46281 3.99198 5.44825 4.09036C5.4337 4.18875 5.45882 4.28889 5.51809 4.36875C5.57737 4.44862 5.66594 4.50166 5.76433 4.51622C5.86272 4.53078 5.96286 4.50565 6.04272 4.44638C7.33383 3.49437 8.89583 2.98075 10.5 2.98075C12.1041 2.98075 13.6661 3.49437 14.9572 4.44638C15.0217 4.4944 15.1 4.52031 15.1803 4.52025ZM4.62447 15.1305C4.56271 15.0525 4.47248 15.0022 4.37364 14.9907C4.27479 14.9792 4.17543 15.0074 4.09741 15.0692C4.01938 15.131 3.96909 15.2212 3.95759 15.32C3.94609 15.4189 3.97433 15.5182 4.03609 15.5963C7.20034 19.7449 13.8 19.7445 16.9638 15.5963C17.0256 15.5182 17.0538 15.4189 17.0423 15.32C17.0308 15.2212 16.9806 15.131 16.9025 15.0692C16.8245 15.0074 16.7251 14.9792 16.6263 14.9907C16.5275 15.0022 16.4372 15.0525 16.3755 15.1305C13.4988 18.9026 7.50072 18.9019 4.62447 15.1305Z" fill="#FFD249"/>
</svg>
