<svg width="24" height="24" viewBox="0 0 24 24" fill="none" xmlns="http://www.w3.org/2000/svg">
<g clip-path="url(#clip0_38_77)">
<path d="M8.2125 7.8001H10.3875V6.9376C10.3875 6.3376 9.9 5.8501 9.3 5.8501C8.7 5.8501 8.2125 6.3376 8.2125 6.9376V7.8001ZM16.0312 12.4876C15.825 12.7313 15.525 12.9001 15.1875 12.9001H14.1937C13.8562 12.9001 13.5375 12.7313 13.35 12.4876C13.1437 12.7313 12.8437 12.9001 12.5062 12.9001H11.5125C10.8938 12.9001 10.4062 12.4126 10.4062 11.7938V11.0063H8.45625V13.1438C9.69375 13.2188 10.7813 13.9126 11.4188 14.9063C12.15 14.0251 13.2187 13.5188 14.3625 13.5188C14.5125 13.5188 14.625 13.6313 14.625 13.7813C14.625 13.9313 14.5125 14.0438 14.3625 14.0438C13.2937 14.0438 12.3 14.5501 11.6812 15.4126C11.9062 15.9001 12.0187 16.4251 12.0187 16.9876C12.0187 17.1376 11.9062 17.2501 11.7563 17.2501C11.6063 17.2501 11.4937 17.1376 11.4937 16.9876C11.4937 15.1688 10.0125 13.6688 8.175 13.6688C8.025 13.6688 7.9125 13.5563 7.9125 13.4063V10.7813C7.9125 10.6313 8.025 10.5188 8.175 10.5188H10.8937C11.1937 10.5188 11.4563 10.4063 11.6625 10.2001C11.8688 10.0126 11.9813 9.73135 11.9813 9.46885C11.9813 9.1876 11.8688 8.9251 11.6625 8.71885C11.4375 8.49385 11.1375 8.3626 10.8188 8.3626H6.975C6.16875 8.3626 5.53125 9.01885 5.53125 9.80635V15.2626C5.53125 16.8001 6.43125 18.2063 7.81875 18.8626C8.325 19.1063 8.90625 19.2376 9.50625 19.2376C9.65625 19.2376 9.76875 19.3501 9.76875 19.5001C9.76875 19.6501 9.65625 19.7626 9.50625 19.7626C8.9625 19.7626 8.45625 19.6501 7.9875 19.4813V24.0001H15.3187V19.4251C14.85 19.5938 14.325 19.7063 13.8 19.7063C13.65 19.7063 13.5375 19.5938 13.5375 19.4438C13.5375 19.2938 13.65 19.1813 13.8 19.1813C14.3625 19.1813 14.9062 19.0688 15.3937 18.8438V18.8626C15.4688 18.7876 17.7562 17.9063 17.7562 15.2063V12.9001H16.8937C16.5375 12.9001 16.2375 12.7501 16.0312 12.4876Z" fill="#FFD249"/>
<path d="M12.5246 9.43125C12.5059 9.84375 12.3559 10.2375 12.0559 10.5187C11.7559 10.8187 11.3621 10.9875 10.9309 10.9875H10.9121V11.775C10.9121 12.1125 11.1746 12.375 11.5121 12.375H12.5059C12.8434 12.375 13.1059 12.1125 13.1059 11.775V5.90625C13.1059 5.325 12.6371 4.81875 12.0184 4.81875C11.4184 4.81875 10.9309 5.30625 10.9309 5.90625V7.78125C11.3621 7.8 11.7746 7.9875 12.0934 8.2875C12.3746 8.625 12.5246 9.01875 12.5246 9.43125ZM17.3809 6.75C16.7809 6.75 16.2934 7.2375 16.2934 7.8375V11.7938C16.2934 12.1313 16.5559 12.3937 16.8934 12.3937H17.8871C18.2246 12.3937 18.4871 12.1313 18.4871 11.7938V7.8375C18.4684 7.25625 17.9996 6.75 17.3809 6.75ZM14.1934 12.3937H15.1871C15.5246 12.3937 15.7871 12.1313 15.7871 11.7938V6.9375C15.7871 6.3375 15.2996 5.85 14.6996 5.85C14.0996 5.85 13.6121 6.3375 13.6121 6.9375V11.7938C13.5934 12.1313 13.8746 12.3937 14.1934 12.3937ZM23.6996 11.7H22.0309C21.8809 11.7 21.7684 11.8125 21.7684 11.9625C21.7684 12.1125 21.8809 12.225 22.0309 12.225H23.6996C23.8496 12.225 23.9621 12.1125 23.9621 11.9625C23.9621 11.8125 23.8496 11.7 23.6996 11.7ZM2.21211 11.9625C2.21211 11.8125 2.09961 11.7 1.94961 11.7H0.299609C0.149609 11.7 0.0371094 11.8125 0.0371094 11.9625C0.0371094 12.1125 0.149609 12.225 0.299609 12.225H1.96836C2.09961 12.2062 2.21211 12.0938 2.21211 11.9625ZM11.9996 2.175C12.1496 2.175 12.2621 2.0625 12.2621 1.9125V0.2625C12.2621 0.1125 12.1496 0 11.9996 0C11.8496 0 11.7371 0.1125 11.7371 0.2625V1.93125C11.7371 2.0625 11.8496 2.175 11.9996 2.175ZM20.0996 3.50625L18.9184 4.6875C18.8246 4.78125 18.8246 4.95 18.9184 5.04375C19.0121 5.1375 19.1809 5.1375 19.2746 5.04375L20.4559 3.8625C20.5496 3.76875 20.5496 3.6 20.4559 3.50625C20.3621 3.39375 20.1934 3.39375 20.0996 3.50625ZM3.89961 3.50625C3.80586 3.4125 3.63711 3.4125 3.54336 3.50625C3.44961 3.6 3.44961 3.76875 3.54336 3.8625L4.72461 5.04375C4.81836 5.1375 4.98711 5.1375 5.08086 5.04375C5.17461 4.95 5.17461 4.78125 5.08086 4.6875L3.89961 3.50625ZM7.91211 2.775C7.96836 2.90625 8.11836 2.9625 8.24961 2.90625C8.38086 2.85 8.43711 2.7 8.38086 2.56875L7.74336 1.03125C7.68711 0.9 7.53711 0.84375 7.40586 0.9C7.27461 0.95625 7.21836 1.10625 7.27461 1.2375L7.91211 2.775ZM15.7496 2.925C15.8809 2.98125 16.0309 2.925 16.0871 2.79375L16.7246 1.25625C16.7809 1.125 16.7246 0.975 16.5934 0.91875C16.4621 0.8625 16.3121 0.91875 16.2559 1.05L15.6184 2.5875C15.5434 2.71875 15.6184 2.86875 15.7496 2.925ZM21.2809 8.3625C21.3746 8.3625 21.3184 8.3625 22.9121 7.70625C23.0434 7.65 23.0996 7.5 23.0434 7.36875C22.9871 7.2375 22.8371 7.18125 22.7059 7.2375L21.1871 7.875C21.0559 7.93125 20.9996 8.08125 21.0559 8.2125C21.0746 8.30625 21.1684 8.3625 21.2809 8.3625ZM2.62461 15.5625L1.08711 16.2C0.955859 16.2563 0.899609 16.4062 0.955859 16.5375C0.993359 16.6312 1.08711 16.6875 1.18086 16.6875C1.27461 16.6875 1.21836 16.6875 2.81211 16.0312C2.94336 15.975 2.99961 15.825 2.94336 15.6937C2.90586 15.5812 2.75586 15.5063 2.62461 15.5625ZM22.9121 16.2L21.3746 15.5625C21.2434 15.5063 21.0934 15.5625 21.0371 15.6937C20.9809 15.825 21.0371 15.975 21.1684 16.0312C22.7996 16.7062 22.7059 16.6875 22.7996 16.6875C22.8934 16.6875 22.9871 16.6312 23.0434 16.5375C23.0996 16.4062 23.0434 16.2563 22.9121 16.2ZM1.08711 7.725C2.71836 8.4 2.62461 8.38125 2.71836 8.38125C2.81211 8.38125 2.90586 8.325 2.96211 8.23125C3.01836 8.1 2.96211 7.95 2.83086 7.89375L1.29336 7.25625C1.16211 7.2 1.01211 7.25625 0.955859 7.3875C0.899609 7.51875 0.955859 7.66875 1.08711 7.725Z" fill="#FFD249"/>
</g>
<defs>
<clipPath id="clip0_38_77">
<rect width="24" height="24" fill="white"/>
</clipPath>
</defs>
</svg>
