<svg width="58" height="91" viewBox="0 0 58 91" fill="none" xmlns="http://www.w3.org/2000/svg">
<path d="M15.9417 2.55364C15.7269 0.943056 14.2472 -0.188686 12.6364 0.0261693C11.0258 0.240896 9.89417 1.72077 10.1089 3.33148C10.8731 9.06381 11.7603 21.457 11.6594 38.7455C0.638359 28.3324 -10.3553 18.0177 -17.5403 11.3011C-18.7273 10.1916 -20.5893 10.2543 -21.6988 11.4413C-22.8086 12.6285 -22.7458 14.4904 -21.5588 15.6C-14.2524 22.4297 -3.04816 32.9429 8.11351 43.4908C7.96651 43.7127 7.82951 43.9421 7.70381 44.1781C-6.97738 43.7931 -20.9921 42.8444 -29.7912 42.0445C-31.4095 41.8974 -32.8405 43.09 -32.9877 44.7082C-33.1347 46.3265 -31.9421 47.7576 -30.3238 47.9048C-21.5364 48.7036 -7.65978 49.6457 6.94008 50.0442C7.05809 50.5496 7.2215 51.0375 7.42597 51.5033C-0.254925 58.6656 -9.12746 66.0321 -19.1352 73.0376C-20.4664 73.9693 -20.7902 75.804 -19.8584 77.1352C-18.9264 78.4664 -17.0918 78.7902 -15.7606 77.8583C-5.60385 70.7486 3.42031 63.2695 11.2559 55.9776C10.8665 65.6372 10.1707 76.2999 9.0463 87.7705C8.88775 89.3877 10.0702 90.8272 11.6874 90.9857C13.3046 91.1443 14.7441 89.9619 14.9027 88.3446C16.0348 76.7984 16.7377 66.0493 17.1323 56.2927C18.2331 56.0233 19.2487 55.5371 20.1315 54.882C29.0636 63.3777 36.944 70.9528 41.4179 75.4268C42.567 76.5758 44.43 76.5758 45.579 75.4268C46.7278 74.2778 46.7278 72.4148 45.579 71.2659C41.0003 66.6872 32.9066 58.9097 23.7731 50.2247C35.7573 50.1276 47.2104 49.4798 55.6129 47.864C57.2086 47.5571 58.2535 46.0147 57.9464 44.419C57.6396 42.8233 56.0973 41.7785 54.5016 42.0853C46.4102 43.6414 35.0595 44.271 22.9666 44.3455C34.7309 31.8643 42.5331 20.9726 46.0429 14.928C46.8589 13.5228 46.381 11.7221 44.9759 10.9062C43.5705 10.0902 41.7699 10.5679 40.9541 11.9731C37.6575 17.6505 30.0802 28.238 18.5533 40.4483C18.2244 40.3013 17.8842 40.1749 17.5345 40.0704C17.6903 21.8703 16.7652 8.73031 15.9417 2.55364Z" fill="#00715D"/>
</svg>
