<svg width="91" height="91" viewBox="0 0 91 91" fill="none" xmlns="http://www.w3.org/2000/svg">
<path d="M48.9417 2.55364C48.7269 0.943056 47.2472 -0.188686 45.6364 0.0261693C44.0258 0.240896 42.8942 1.72077 43.1089 3.33148C43.8731 9.06381 44.7603 21.457 44.6594 38.7455C33.6384 28.3324 22.6447 18.0177 15.4597 11.3011C14.2727 10.1916 12.4107 10.2543 11.3012 11.4413C10.1914 12.6285 10.2542 14.4904 11.4412 15.6C18.7476 22.4297 29.9518 32.9429 41.1135 43.4908C40.9665 43.7127 40.8295 43.9421 40.7038 44.1781C26.0226 43.7931 12.0079 42.8444 3.20878 42.0445C1.5905 41.8974 0.159508 43.09 0.0122528 44.7082C-0.134746 46.3265 1.05792 47.7576 2.67619 47.9048C11.4636 48.7036 25.3402 49.6457 39.9401 50.0442C40.0581 50.5496 40.2215 51.0375 40.426 51.5033C32.7451 58.6656 23.8725 66.0321 13.8648 73.0376C12.5336 73.9693 12.2098 75.804 13.1416 77.1352C14.0736 78.4664 15.9082 78.7902 17.2394 77.8583C27.3962 70.7486 36.4203 63.2695 44.2559 55.9776C43.8665 65.6372 43.1707 76.2999 42.0463 87.7705C41.8878 89.3877 43.0702 90.8272 44.6874 90.9857C46.3046 91.1443 47.7441 89.9619 47.9027 88.3446C49.0348 76.7984 49.7377 66.0493 50.1323 56.2927C51.2331 56.0233 52.2487 55.5371 53.1315 54.882C62.0636 63.3777 69.944 70.9528 74.4179 75.4268C75.567 76.5758 77.43 76.5758 78.579 75.4268C79.7278 74.2778 79.7278 72.4148 78.579 71.2659C74.0003 66.6872 65.9066 58.9097 56.7731 50.2247C68.7573 50.1276 80.2104 49.4798 88.6129 47.864C90.2086 47.5571 91.2535 46.0147 90.9464 44.419C90.6396 42.8233 89.0973 41.7785 87.5016 42.0853C79.4102 43.6414 68.0595 44.271 55.9666 44.3455C67.7309 31.8643 75.5331 20.9726 79.0429 14.928C79.8589 13.5228 79.381 11.7221 77.9759 10.9062C76.5705 10.0902 74.7699 10.5679 73.9541 11.9731C70.6575 17.6505 63.0802 28.238 51.5533 40.4483C51.2244 40.3013 50.8842 40.1749 50.5345 40.0704C50.6903 21.8703 49.7652 8.73031 48.9417 2.55364Z" fill="#AAD0C9"/>
</svg>
