<svg width="32" height="32" viewBox="0 0 32 32" fill="none" xmlns="http://www.w3.org/2000/svg">
<path d="M21.587 2.6665H10.4137C5.56033 2.6665 2.66699 5.55984 2.66699 10.4132V21.5732C2.66699 26.4398 5.56033 29.3332 10.4137 29.3332H21.5737C26.427 29.3332 29.3203 26.4398 29.3203 21.5865V10.4132C29.3337 5.55984 26.4403 2.6665 21.587 2.6665ZM22.3737 12.9332L14.8137 20.4932C14.627 20.6798 14.3737 20.7865 14.107 20.7865C13.8403 20.7865 13.587 20.6798 13.4003 20.4932L9.62699 16.7198C9.24033 16.3332 9.24033 15.6932 9.62699 15.3065C10.0137 14.9198 10.6537 14.9198 11.0403 15.3065L14.107 18.3732L20.9603 11.5198C21.347 11.1332 21.987 11.1332 22.3737 11.5198C22.7603 11.9065 22.7603 12.5332 22.3737 12.9332Z" fill="#00715D"/>
</svg>
