<svg width="28" height="29" viewBox="0 0 28 29" fill="none" xmlns="http://www.w3.org/2000/svg">
<path fill-rule="evenodd" clip-rule="evenodd" d="M14.6959 26.416C11.0777 25.5153 7.59335 25.5743 3.92334 25.4664C3.20661 25.4454 2.61073 26.0153 2.58915 26.7385C2.56756 27.4622 3.13319 28.0662 3.84992 28.0876C7.32996 28.1898 10.6416 28.1072 14.0784 28.962C14.7736 29.1351 15.4774 28.7046 15.6458 28.0019C15.8185 27.2996 15.391 26.5886 14.6959 26.416Z" fill="#00715D"/>
<path fill-rule="evenodd" clip-rule="evenodd" d="M21.7072 18.764C16.1892 12.6538 9.09098 6.8966 1.92366 2.87262C1.2976 2.5217 0.507433 2.75027 0.16202 3.38306C-0.183392 4.01585 0.0411452 4.81469 0.667206 5.16561C7.59705 9.05674 14.4622 14.6247 19.7945 20.533C20.278 21.0671 21.0984 21.1042 21.6252 20.6161C22.1519 20.1279 22.1907 19.298 21.7072 18.764Z" fill="#00715D"/>
<path fill-rule="evenodd" clip-rule="evenodd" d="M27.7351 17.2158C28.6462 11.6274 27.0918 5.86715 24.8941 0.785612C24.6049 0.122669 23.8406 -0.17975 23.1887 0.109987C22.5324 0.400161 22.2345 1.17412 22.5194 1.83706C24.5228 6.46498 26.0081 11.699 25.1791 16.7889C25.0625 17.503 25.5418 18.1781 26.2456 18.2957C26.9493 18.4137 27.6186 17.9295 27.7351 17.2158Z" fill="#00715D"/>
</svg>
