<svg width="10" height="14" viewBox="0 0 10 14" fill="none" xmlns="http://www.w3.org/2000/svg">
<path d="M8.95813 2.39743C8.10847 0.931151 6.59932 0.0353418 4.92109 0.00110742C4.84945 -0.000369141 4.77735 -0.000369141 4.70568 0.00110742C3.02748 0.0353418 1.51833 0.931151 0.668648 2.39743C-0.199844 3.8962 -0.223606 5.69651 0.605074 7.21329L4.07672 13.5676C4.07828 13.5704 4.07984 13.5733 4.08145 13.576C4.23419 13.8415 4.50782 14 4.81344 14C5.11904 14 5.39266 13.8415 5.54538 13.576C5.54699 13.5733 5.54855 13.5704 5.55011 13.5676L9.02175 7.21329C9.85038 5.69651 9.82662 3.8962 8.95813 2.39743ZM4.81339 6.34376C3.72781 6.34376 2.84464 5.46059 2.84464 4.37501C2.84464 3.28944 3.72781 2.40626 4.81339 2.40626C5.89896 2.40626 6.78214 3.28944 6.78214 4.37501C6.78214 5.46059 5.89899 6.34376 4.81339 6.34376Z" fill="#00715D"/>
</svg>
