<svg width="81" height="26" viewBox="0 0 81 26" fill="none" xmlns="http://www.w3.org/2000/svg">
<path d="M2.268 0.324C2.604 0.324 2.952 0.42 3.312 0.612001C3.696 0.78 3.984 1.008 4.176 1.296L12.924 14.76L11.124 14.688L20.088 1.296C20.544 0.648 21.132 0.324 21.852 0.324C22.428 0.324 22.944 0.528 23.4 0.936001C23.856 1.344 24.084 1.872 24.084 2.52V23.364C24.084 23.988 23.88 24.516 23.472 24.948C23.064 25.356 22.524 25.56 21.852 25.56C21.18 25.56 20.628 25.356 20.196 24.948C19.788 24.516 19.584 23.988 19.584 23.364V6.408L20.988 6.732L13.644 17.928C13.428 18.192 13.152 18.42 12.816 18.612C12.504 18.804 12.18 18.888 11.844 18.864C11.532 18.888 11.208 18.804 10.872 18.612C10.56 18.42 10.296 18.192 10.08 17.928L3.204 7.056L4.14 5.148V23.364C4.14 23.988 3.948 24.516 3.564 24.948C3.18 25.356 2.676 25.56 2.052 25.56C1.452 25.56 0.960003 25.356 0.576003 24.948C0.192003 24.516 3.15905e-06 23.988 3.15905e-06 23.364V2.52C3.15905e-06 1.92 0.216003 1.404 0.648003 0.972C1.104 0.54 1.644 0.324 2.268 0.324ZM52.6801 12.96C52.6801 14.76 52.3801 16.44 51.7801 18C51.1801 19.56 50.3281 20.94 49.2241 22.14C48.1441 23.316 46.8481 24.24 45.3361 24.912C43.8481 25.584 42.2161 25.92 40.4401 25.92C38.6641 25.92 37.0321 25.584 35.5441 24.912C34.0561 24.24 32.7601 23.316 31.6561 22.14C30.5761 20.94 29.7361 19.56 29.1361 18C28.5361 16.44 28.2361 14.76 28.2361 12.96C28.2361 11.16 28.5361 9.48 29.1361 7.92C29.7361 6.36 30.5761 4.992 31.6561 3.816C32.7601 2.616 34.0561 1.68 35.5441 1.008C37.0321 0.336 38.6641 0 40.4401 0C42.2161 0 43.8481 0.336 45.3361 1.008C46.8481 1.68 48.1441 2.616 49.2241 3.816C50.3281 4.992 51.1801 6.36 51.7801 7.92C52.3801 9.48 52.6801 11.16 52.6801 12.96ZM48.0001 12.96C48.0001 11.352 47.6761 9.9 47.0281 8.604C46.3801 7.284 45.4921 6.24 44.3641 5.472C43.2361 4.704 41.9281 4.32 40.4401 4.32C38.9521 4.32 37.6441 4.704 36.5161 5.472C35.3881 6.24 34.5001 7.272 33.8521 8.568C33.2281 9.864 32.9161 11.328 32.9161 12.96C32.9161 14.568 33.2281 16.032 33.8521 17.352C34.5001 18.648 35.3881 19.68 36.5161 20.448C37.6441 21.216 38.9521 21.6 40.4401 21.6C41.9281 21.6 43.2361 21.216 44.3641 20.448C45.4921 19.68 46.3801 18.648 47.0281 17.352C47.6761 16.032 48.0001 14.568 48.0001 12.96ZM59.0805 0.324C59.4165 0.324 59.7645 0.42 60.1245 0.612001C60.5085 0.78 60.7965 1.008 60.9885 1.296L69.7365 14.76L67.9365 14.688L76.9005 1.296C77.3565 0.648 77.9445 0.324 78.6645 0.324C79.2405 0.324 79.7565 0.528 80.2125 0.936001C80.6685 1.344 80.8965 1.872 80.8965 2.52V23.364C80.8965 23.988 80.6925 24.516 80.2845 24.948C79.8765 25.356 79.3365 25.56 78.6645 25.56C77.9925 25.56 77.4405 25.356 77.0085 24.948C76.6005 24.516 76.3965 23.988 76.3965 23.364V6.408L77.8005 6.732L70.4565 17.928C70.2405 18.192 69.9645 18.42 69.6285 18.612C69.3165 18.804 68.9925 18.888 68.6565 18.864C68.3445 18.888 68.0205 18.804 67.6845 18.612C67.3725 18.42 67.1085 18.192 66.8925 17.928L60.0165 7.056L60.9525 5.148V23.364C60.9525 23.988 60.7605 24.516 60.3765 24.948C59.9925 25.356 59.4885 25.56 58.8645 25.56C58.2645 25.56 57.7725 25.356 57.3885 24.948C57.0045 24.516 56.8125 23.988 56.8125 23.364V2.52C56.8125 1.92 57.0285 1.404 57.4605 0.972C57.9165 0.54 58.4565 0.324 59.0805 0.324Z" fill="#00715D"/>
</svg>
