<svg width="24" height="24" viewBox="0 0 24 24" fill="none" xmlns="http://www.w3.org/2000/svg">
<path d="M23.0448 10.2501C22.9236 9.73058 22.7219 9.23412 22.4473 8.77945L22.8631 7.82438L21.7594 6.69845L20.8229 7.12275C20.3774 6.84269 19.8909 6.63692 19.3818 6.5132L19.014 5.53828H17.4532L17.0853 6.5132C16.5763 6.63693 16.0898 6.8427 15.6442 7.12275L14.7079 6.69845L13.6042 7.82443L14.02 8.77971C13.7455 9.23429 13.5438 9.73064 13.4226 10.25L12.4671 10.6253V12.2177L13.4224 12.5928C13.5437 13.1123 13.7454 13.6088 14.02 14.0635L13.6041 15.0183L14.7079 16.1445L15.6443 15.7199C16.0898 16 16.5763 16.2057 17.0854 16.3295L17.4532 17.3044H19.0141L19.3818 16.3297C19.891 16.206 20.3777 16.0002 20.8233 15.7201L21.7595 16.1443L22.8631 15.0183L22.4469 14.0629C22.7214 13.6084 22.9231 13.1121 23.0444 12.5928L24 12.2175V10.6252L23.0448 10.2501ZM18.2336 14.1986C17.6952 14.1985 17.169 14.0356 16.7213 13.7304C16.2737 13.4253 15.9248 12.9915 15.7188 12.4841C15.5128 11.9766 15.459 11.4182 15.564 10.8795C15.6691 10.3408 15.9284 9.84603 16.3091 9.45767C16.6898 9.0693 17.1748 8.80483 17.7028 8.69769C18.2309 8.59055 18.7782 8.64556 19.2756 8.85576C19.7729 9.06596 20.1981 9.42191 20.4972 9.87859C20.7963 10.3353 20.9559 10.8722 20.9559 11.4215C20.9559 11.7862 20.8855 12.1473 20.7487 12.4843C20.6119 12.8212 20.4114 13.1274 20.1586 13.3853C19.9058 13.6432 19.6057 13.8477 19.2754 13.9873C18.9451 14.1268 18.5911 14.1986 18.2336 14.1986ZM12.5742 6.40925H8.69171L8.74386 6.45079C8.8274 6.51735 8.8816 6.61505 8.89453 6.72238C8.90747 6.82971 8.87808 6.93789 8.81283 7.02312C8.74759 7.10835 8.65183 7.16364 8.54662 7.17684C8.44141 7.19003 8.33538 7.16005 8.25184 7.09349L7.28866 6.32612C7.23963 6.28849 7.19974 6.23985 7.17209 6.18398C7.14443 6.1281 7.12975 6.06648 7.12917 6.00389C7.12859 5.9413 7.14214 5.87941 7.16876 5.82302C7.19538 5.76662 7.23436 5.71723 7.28269 5.67866L8.25184 4.90648C8.33538 4.83992 8.44141 4.80994 8.54662 4.82313C8.65183 4.83633 8.74759 4.89162 8.81283 4.97685C8.87808 5.06208 8.90747 5.17026 8.89453 5.27759C8.8816 5.38492 8.8274 5.48262 8.74386 5.54918L8.69171 5.59072H12.5742C12.6806 5.59072 12.7826 5.63384 12.8579 5.71059C12.9331 5.78734 12.9754 5.89144 12.9754 5.99999C12.9754 6.10853 12.9331 6.21263 12.8579 6.28938C12.7826 6.36613 12.6806 6.40925 12.5742 6.40925ZM6.1246 3.1799C6.1246 3.07136 6.16686 2.96726 6.24209 2.89051C6.31732 2.81376 6.41936 2.77064 6.52575 2.77064H12.4141L12.362 2.7291C12.2784 2.66253 12.2242 2.56484 12.2113 2.4575C12.1983 2.35017 12.2277 2.24199 12.293 2.15677C12.3582 2.07154 12.454 2.01625 12.5592 2.00305C12.6644 1.98985 12.7704 2.01983 12.854 2.0864L13.8232 2.85853C13.8715 2.8971 13.9105 2.94649 13.9371 3.00289C13.9637 3.05929 13.9772 3.12118 13.9767 3.18377C13.9761 3.24636 13.9614 3.30798 13.9337 3.36385C13.9061 3.41972 13.8662 3.46835 13.8172 3.50598L12.854 4.27335C12.7704 4.33992 12.6644 4.36989 12.5592 4.35669C12.4539 4.34348 12.3582 4.28817 12.2929 4.20293C12.2277 4.11769 12.1983 4.0095 12.2112 3.90216C12.2242 3.79482 12.2784 3.69712 12.362 3.63055L12.4141 3.58901H6.52575C6.41939 3.58901 6.31737 3.54591 6.24215 3.4692C6.16692 3.39248 6.12464 3.28842 6.1246 3.1799ZM11.359 18.451L11.4112 18.4095H7.5287C7.42231 18.4095 7.32027 18.3664 7.24504 18.2896C7.16981 18.2129 7.12754 18.1088 7.12754 18.0002C7.12754 17.8917 7.16981 17.7876 7.24504 17.7108C7.32027 17.6341 7.42231 17.591 7.5287 17.591H11.4112L11.359 17.5494C11.2755 17.4829 11.2213 17.3852 11.2083 17.2778C11.1954 17.1705 11.2248 17.0623 11.29 16.9771C11.3553 16.8919 11.451 16.8366 11.5562 16.8234C11.6615 16.8102 11.7675 16.8402 11.851 16.9067L12.8142 17.6741C12.8632 17.7117 12.9031 17.7604 12.9308 17.8162C12.9584 17.8721 12.9731 17.9337 12.9737 17.9963C12.9743 18.0589 12.9607 18.1208 12.9341 18.1772C12.9075 18.2336 12.8685 18.283 12.8202 18.3215L11.851 19.0937C11.8097 19.1269 11.7623 19.1515 11.7117 19.166C11.661 19.1805 11.608 19.1846 11.5558 19.1782C11.5035 19.1717 11.4531 19.1548 11.4072 19.1284C11.3614 19.1021 11.3211 19.0667 11.2887 19.0244C11.2563 18.9821 11.2325 18.9336 11.2185 18.8819C11.2045 18.8301 11.2006 18.7761 11.2071 18.7228C11.2137 18.6695 11.2304 18.6181 11.2565 18.5715C11.2826 18.5248 11.3174 18.4839 11.359 18.451ZM2.18216 8.81245C2.18215 8.34238 2.31878 7.88286 2.57475 7.49201C2.83073 7.10116 3.19456 6.79652 3.62025 6.61663C4.04593 6.43673 4.51434 6.38966 4.96625 6.48136C5.41815 6.57306 5.83326 6.79941 6.15907 7.1318C6.48488 7.46418 6.70676 7.88767 6.79665 8.34871C6.88654 8.80974 6.84041 9.28762 6.66409 9.72191C6.48777 10.1562 6.18917 10.5274 5.80607 10.7885C5.42296 11.0497 4.97255 11.1891 4.51179 11.1891C3.89394 11.1891 3.3014 10.9387 2.86451 10.493C2.42763 10.0473 2.18218 9.44278 2.18216 8.81245ZM13.9783 20.8201C13.9783 20.9286 13.936 21.0327 13.8608 21.1095C13.7855 21.1862 13.6835 21.2294 13.5771 21.2294H7.68876L7.74091 21.2709C7.82445 21.3375 7.87865 21.4352 7.89159 21.5425C7.90452 21.6498 7.87513 21.758 7.80989 21.8432C7.74464 21.9285 7.64888 21.9838 7.54367 21.997C7.43847 22.0101 7.33243 21.9802 7.24889 21.9136L6.27969 21.1415C6.23138 21.1029 6.19241 21.0535 6.1658 20.9971C6.13919 20.9407 6.12565 20.8788 6.12623 20.8162C6.12681 20.7536 6.1415 20.692 6.16915 20.6362C6.19681 20.5803 6.23669 20.5317 6.28571 20.494L7.24889 19.7267C7.33243 19.6601 7.43847 19.6301 7.54367 19.6433C7.64888 19.6565 7.74464 19.7118 7.80989 19.797C7.87513 19.8822 7.90452 19.9904 7.89159 20.0978C7.87865 20.2051 7.82445 20.3028 7.74091 20.3693L7.68876 20.4109H13.5771C13.6835 20.4109 13.7855 20.454 13.8608 20.5307C13.936 20.6075 13.9783 20.7116 13.9783 20.8201ZM8.62211 15.8955H0.401575C0.341567 15.8958 0.28227 15.8823 0.228079 15.856C0.173888 15.8297 0.126195 15.7913 0.0885353 15.7436C0.0508756 15.696 0.0242156 15.6403 0.0105324 15.5807C-0.00315071 15.521 -0.00350607 15.4591 0.00949261 15.3993C0.233594 14.3511 0.80236 13.4126 1.62136 12.7397C2.44037 12.0667 3.46034 11.6998 4.51194 11.6998C5.56354 11.6998 6.58351 12.0667 7.40252 12.7397C8.22152 13.4126 8.79029 14.3511 9.01439 15.3993C9.02738 15.4591 9.02701 15.5211 9.01332 15.5807C8.99962 15.6403 8.97294 15.696 8.93526 15.7437C8.89758 15.7914 8.84986 15.8298 8.79565 15.856C8.74144 15.8823 8.68213 15.8958 8.62211 15.8955Z" fill="#FFD249"/>
</svg>
