<svg width="37" height="32" viewBox="0 0 37 32" fill="none" xmlns="http://www.w3.org/2000/svg">
<path d="M36.8 0.315556L35.8713 6.97981C34.0139 6.82392 32.5047 7.1357 31.3439 7.91515C30.183 8.65562 29.3703 9.74684 28.906 11.1888C28.4803 12.5918 28.4029 14.2287 28.6738 16.0993H36.8V32H21.012V16.0993C21.012 10.4873 22.3083 6.23934 24.9009 3.35539C27.4936 0.432474 31.4599 -0.580806 36.8 0.315556ZM15.788 0.315556L14.8593 6.97981C13.0019 6.82392 11.4927 7.1357 10.3319 7.91515C9.17098 8.65562 8.35836 9.74684 7.89401 11.1888C7.46835 12.5918 7.39096 14.2287 7.66183 16.0993H15.788V32H0V16.0993C0 10.4873 1.29632 6.23934 3.88896 3.35539C6.4816 0.432474 10.4479 -0.580806 15.788 0.315556Z" fill="#00715D"/>
</svg>
