<svg width="28" height="29" viewBox="0 0 28 29" fill="none" xmlns="http://www.w3.org/2000/svg">
<path fill-rule="evenodd" clip-rule="evenodd" d="M13.3046 26.416C16.9228 25.5153 20.4071 25.5743 24.0771 25.4664C24.7939 25.4454 25.3898 26.0153 25.4113 26.7385C25.4329 27.4622 24.8673 28.0662 24.1506 28.0876C20.6705 28.1898 17.3589 28.1072 13.9221 28.962C13.2269 29.1351 12.5231 28.7046 12.3547 28.0019C12.182 27.2996 12.6095 26.5886 13.3046 26.416Z" fill="#FFD249"/>
<path fill-rule="evenodd" clip-rule="evenodd" d="M6.29333 18.764C11.8113 12.6538 18.9095 6.8966 26.0768 2.87262C26.7029 2.5217 27.4931 2.75027 27.8385 3.38306C28.1839 4.01585 27.9593 4.81469 27.3333 5.16561C20.4034 9.05674 13.5383 14.6247 8.20602 20.533C7.72244 21.0671 6.90209 21.1042 6.37534 20.6161C5.84858 20.1279 5.80975 19.298 6.29333 18.764Z" fill="#FFD249"/>
<path fill-rule="evenodd" clip-rule="evenodd" d="M0.265351 17.2158C-0.645676 11.6274 0.908663 5.86715 3.10635 0.785612C3.39564 0.122669 4.15984 -0.17975 4.81181 0.109987C5.46809 0.400161 5.76603 1.17412 5.48107 1.83706C3.47767 6.46498 1.99238 11.699 2.82137 16.7889C2.93795 17.503 2.4587 18.1781 1.75492 18.2957C1.05114 18.4137 0.381928 17.9295 0.265351 17.2158Z" fill="#FFD249"/>
</svg>
