<svg width="12" height="12" viewBox="0 0 12 12" fill="none" xmlns="http://www.w3.org/2000/svg">
<path d="M5.66065 8.24011H3.41065V7.53699H5.66065C6.0813 7.53699 6.42354 7.19475 6.42354 6.7741C6.42354 6.35344 6.0813 6.0112 5.66065 6.0112L0 6.00767V9.50656L0.280359 9.93584C0.669375 10.5315 1.32633 10.8871 2.03775 10.8871H6.89255L9.64823 8.21292C9.87499 7.99289 10.0021 7.69772 10.0061 7.38176C10.0101 7.06582 9.89046 6.76751 9.66935 6.54181C9.2291 6.09244 8.51557 6.0675 8.04487 6.48488C8.04487 6.48488 6.73612 7.78974 6.57548 7.9185C6.32461 8.11967 6.00649 8.24011 5.66065 8.24011ZM7.38607 3.11869H10.1081V3.82181H7.38607C6.99431 3.82181 6.67563 4.14054 6.67563 4.53228C6.67563 4.92251 6.9919 5.24016 7.38157 5.24262H12V2.41301L11.7355 2.00794C11.3695 1.44748 10.7513 1.11288 10.0819 1.11288H6.26419L4.04672 3.14405L4.03936 3.15101C3.82392 3.3601 3.70315 3.64057 3.69937 3.94076C3.69558 4.24097 3.8092 4.5244 4.0193 4.73888L4.01932 4.7389C4.43763 5.16581 5.11563 5.18958 5.56284 4.79297L5.97691 4.42568C6.03169 3.69584 6.64252 3.11869 7.38607 3.11869Z" fill="#00715D"/>
</svg>
